<svg role="img" viewBox="0 0 396.532 277.776" xmlns="http://www.w3.org/2000/svg"><title>YouTube</title><path fill="#FF0000" d="M43.448 269.376C26.358 264.741 13.034 251.128 8.11 234.328C0 203.335 0 138.743 0 138.743C0 138.743 0 74.151 8.11 43.448C13.034 26.359 26.358 13.034 43.448 8.4C74.151 0 198.121 0 198.121 0C198.121 0 322.381 0 353.085 8.4C370.464 13.034 383.498 26.359 388.133 43.448C396.532 74.151 396.532 138.743 396.532 138.743C396.532 138.743 396.532 203.335 388.133 234.328C383.498 251.128 370.464 264.741 353.085 269.376C322.381 277.776 198.121 277.776 198.121 277.776C198.121 277.776 74.151 277.776 43.448 269.376Z"/><path fill="#fff" d="M158.728 198.411L261.555 138.743L158.728 79.365Z"/></svg>
